<svg width="87" height="90" viewBox="0 0 87 90" fill="none" xmlns="http://www.w3.org/2000/svg">
<rect width="87" height="90" fill="white"/>
<path d="M38.5999 35.3333V39.3333C38.5999 39.3333 46.6834 39.2664 49.9998 39.3333C53.3161 39.4003 53.2973 45.4193 49.9998 45.3333C46.7022 45.2473 38.5999 45.3333 38.5999 45.3333V50C43.73 50.0356 44.2998 50 51.1998 50C58.0997 50 58.0997 34.6667 51.1998 34.6667H38.5999V35.3333Z" fill="black"/>
<path d="M28.9999 20V60.6667H51.1998C55.654 59.8487 57.9648 58.8374 61.3997 55C64.3214 50.5651 64.8077 47.8651 64.9996 43C65.028 35.7603 63.3749 34.0966 61.3997 30.6667C57.822 27.3051 55.5555 26.0745 51.1998 24.6667H38.5999V29.6667H51.1998C54.2276 30.3183 55.8252 31.1647 58.3997 34C60.589 36.8764 61.267 38.8328 61.3997 43C60.9363 46.8263 60.3633 48.7762 58.3997 51.6667C56.3483 54.2717 54.7365 55.1792 51.1998 56H33.1999V20H28.9999Z" fill="black"/>
<path d="M20 20V71H47.5998V66.3333H24.5L24.2 20H20Z" fill="black"/>
<path d="M51.1998 34.6667C58.0997 34.6667 58.0997 50 51.1998 50C44.2998 50 43.73 50.0356 38.5999 50V45.3333C38.5999 45.3333 46.7022 45.2473 49.9998 45.3333C53.2973 45.4193 53.3161 39.4003 49.9998 39.3333C46.6834 39.2664 38.5999 39.3333 38.5999 39.3333V35.3333V34.6667M51.1998 34.6667C44.2998 34.6667 38.5999 34.6667 38.5999 34.6667M51.1998 34.6667H38.5999M20 20V71H47.5998V66.3333H24.5L24.2 20H20ZM28.9999 20V60.6667H51.1998C55.654 59.8487 57.9648 58.8374 61.3997 55C64.3214 50.5651 64.8077 47.8651 64.9996 43C65.028 35.7603 63.3749 34.0966 61.3997 30.6667C57.822 27.3051 55.5555 26.0745 51.1998 24.6667H38.5999V29.6667H51.1998C54.2276 30.3183 55.8252 31.1647 58.3997 34C60.589 36.8764 61.267 38.8328 61.3997 43C60.9363 46.8263 60.3633 48.7762 58.3997 51.6667C56.3483 54.2717 54.7365 55.1792 51.1998 56H33.1999V20H28.9999Z" stroke="black"/>
</svg>
